<svg width="381" height="37" viewBox="0 0 381 37" fill="none" xmlns="http://www.w3.org/2000/svg">
<path d="M6.09375 16.1719H27.4922V2.4375H33.5859V36.0469H27.4922V22.3125H6.09375V36.0469H0V2.4375H6.09375V16.1719ZM67.125 19.1016C67.125 19.9453 66.9766 20.8594 66.6797 21.8438C66.3828 22.8125 65.8984 23.7188 65.2266 24.5625C64.5703 25.3906 63.7031 26.0859 62.625 26.6484C61.5625 27.2109 60.2656 27.4922 58.7344 27.4922H47.7422V21.7031H58.7344C59.5625 21.7031 60.2031 21.4531 60.6562 20.9531C61.1094 20.4375 61.3359 19.8047 61.3359 19.0547C61.3359 18.2578 61.0781 17.6328 60.5625 17.1797C60.0625 16.7266 59.4531 16.5 58.7344 16.5H47.7422C46.9141 16.5 46.2734 16.7578 45.8203 17.2734C45.3672 17.7734 45.1406 18.3984 45.1406 19.1484V27.6562C45.1406 28.4688 45.3906 29.1016 45.8906 29.5547C46.4062 30.0078 47.0391 30.2344 47.7891 30.2344H58.7344V36.0469H47.7422C46.8984 36.0469 45.9844 35.8984 45 35.6016C44.0312 35.3047 43.125 34.8281 42.2812 34.1719C41.4531 33.5 40.7578 32.6328 40.1953 31.5703C39.6328 30.4922 39.3516 29.1875 39.3516 27.6562V19.1016C39.3516 18.2578 39.5 17.3516 39.7969 16.3828C40.0938 15.3984 40.5703 14.4922 41.2266 13.6641C41.8984 12.8203 42.7656 12.1172 43.8281 11.5547C44.9062 10.9922 46.2109 10.7109 47.7422 10.7109H58.7344C59.5781 10.7109 60.4844 10.8594 61.4531 11.1562C62.4375 11.4531 63.3438 11.9375 64.1719 12.6094C65.0156 13.2656 65.7188 14.1328 66.2812 15.2109C66.8438 16.2734 67.125 17.5703 67.125 19.1016ZM97.1953 27.6562C97.1953 28.5 97.0469 29.4141 96.75 30.3984C96.4531 31.3672 95.9688 32.2734 95.2969 33.1172C94.6406 33.9453 93.7734 34.6406 92.6953 35.2031C91.6328 35.7656 90.3359 36.0469 88.8047 36.0469H77.8125C76.9688 36.0469 76.0547 35.8984 75.0703 35.6016C74.1016 35.3047 73.1953 34.8281 72.3516 34.1719C71.5234 33.5 70.8281 32.6328 70.2656 31.5703C69.7031 30.4922 69.4219 29.1875 69.4219 27.6562C69.4219 26.8125 69.5703 25.8984 69.8672 24.9141C70.1641 23.9297 70.6406 23.0234 71.2969 22.1953C71.9688 21.3516 72.8359 20.6484 73.8984 20.0859C74.9766 19.5234 76.2812 19.2422 77.8125 19.2422H88.8047V25.0547H77.8125C76.9844 25.0547 76.3438 25.3125 75.8906 25.8281C75.4375 26.3281 75.2109 26.9531 75.2109 27.7031C75.2109 28.5 75.4688 29.125 75.9844 29.5781C76.5156 30.0156 77.1406 30.2344 77.8594 30.2344H88.8047C89.6328 30.2344 90.2734 29.9844 90.7266 29.4844C91.1797 28.9844 91.4062 28.3594 91.4062 27.6094V19.1016C91.4062 18.3047 91.1562 17.6719 90.6562 17.2031C90.1719 16.7344 89.5547 16.5 88.8047 16.5H75.4219V10.7109H88.8047C89.6484 10.7109 90.5547 10.8594 91.5234 11.1562C92.5078 11.4531 93.4141 11.9375 94.2422 12.6094C95.0859 13.2656 95.7891 14.1328 96.3516 15.2109C96.9141 16.2734 97.1953 17.5703 97.1953 19.1016V27.6562ZM113.531 36.0469H110.812C109.938 36.0469 109 35.8984 108 35.6016C107.016 35.3047 106.094 34.8203 105.234 34.1484C104.375 33.4609 103.664 32.5781 103.102 31.5C102.539 30.4062 102.258 29.0703 102.258 27.4922V0H108.352V27.4922C108.352 28.2422 108.586 28.8438 109.055 29.2969C109.523 29.7344 110.109 29.9531 110.812 29.9531H113.531V36.0469ZM139.547 16.8047H128.906V36.0469H122.742V16.8047H114.82V10.7109H122.742V2.4375H128.906V10.7109H139.547V16.8047ZM171.727 36.0469H165.633V19.2422C165.633 18.4453 165.43 17.8438 165.023 17.4375C164.617 17.0156 164.008 16.8047 163.195 16.8047H152.203V10.7109H163.195C163.773 10.7109 164.383 10.7812 165.023 10.9219C165.664 11.0469 166.297 11.25 166.922 11.5312C167.562 11.8125 168.172 12.1797 168.75 12.6328C169.328 13.0703 169.836 13.6094 170.273 14.25C170.711 14.875 171.062 15.6016 171.328 16.4297C171.594 17.2578 171.727 18.1953 171.727 19.2422V36.0469ZM149.742 36.0469H143.648V0H149.742V36.0469Z" fill="#7B3F00"/>
<path d="M208.359 8.53125H194.93V36.0469H188.836V8.53125H175.383V2.4375H208.359V8.53125ZM231.539 16.8047H217.828C217 16.8047 216.375 17.0156 215.953 17.4375C215.531 17.8438 215.32 18.4453 215.32 19.2422V36.0469H209.227V19.2422C209.227 18.1953 209.359 17.2578 209.625 16.4297C209.891 15.6016 210.242 14.875 210.68 14.25C211.133 13.6094 211.648 13.0703 212.227 12.6328C212.805 12.1797 213.406 11.8125 214.031 11.5312C214.672 11.25 215.312 11.0469 215.953 10.9219C216.609 10.7812 217.219 10.7109 217.781 10.7109H231.539V16.8047ZM259.758 27.6562C259.758 28.5 259.609 29.4141 259.312 30.3984C259.016 31.3672 258.531 32.2734 257.859 33.1172C257.203 33.9453 256.336 34.6406 255.258 35.2031C254.195 35.7656 252.898 36.0469 251.367 36.0469H240.375C239.531 36.0469 238.617 35.8984 237.633 35.6016C236.664 35.3047 235.758 34.8281 234.914 34.1719C234.086 33.5 233.391 32.6328 232.828 31.5703C232.266 30.4922 231.984 29.1875 231.984 27.6562C231.984 26.8125 232.133 25.8984 232.43 24.9141C232.727 23.9297 233.203 23.0234 233.859 22.1953C234.531 21.3516 235.398 20.6484 236.461 20.0859C237.539 19.5234 238.844 19.2422 240.375 19.2422H251.367V25.0547H240.375C239.547 25.0547 238.906 25.3125 238.453 25.8281C238 26.3281 237.773 26.9531 237.773 27.7031C237.773 28.5 238.031 29.125 238.547 29.5781C239.078 30.0156 239.703 30.2344 240.422 30.2344H251.367C252.195 30.2344 252.836 29.9844 253.289 29.4844C253.742 28.9844 253.969 28.3594 253.969 27.6094V19.1016C253.969 18.3047 253.719 17.6719 253.219 17.2031C252.734 16.7344 252.117 16.5 251.367 16.5H237.984V10.7109H251.367C252.211 10.7109 253.117 10.8594 254.086 11.1562C255.07 11.4531 255.977 11.9375 256.805 12.6094C257.648 13.2656 258.352 14.1328 258.914 15.2109C259.477 16.2734 259.758 17.5703 259.758 19.1016V27.6562ZM289.5 36.0469H272.977C272.133 36.0469 271.211 35.8984 270.211 35.6016C269.211 35.3047 268.281 34.8203 267.422 34.1484C266.578 33.4609 265.867 32.5781 265.289 31.5C264.727 30.4062 264.445 29.0703 264.445 27.4922V19.2422C264.445 18.6641 264.508 18.0547 264.633 17.4141C264.773 16.7734 264.984 16.1406 265.266 15.5156C265.547 14.875 265.906 14.2656 266.344 13.6875C266.797 13.1094 267.336 12.6016 267.961 12.1641C268.602 11.7266 269.336 11.375 270.164 11.1094C270.992 10.8438 271.93 10.7109 272.977 10.7109H289.5V16.8047H272.977C272.18 16.8047 271.57 17.0078 271.148 17.4141C270.742 17.8203 270.539 18.4453 270.539 19.2891V27.4922C270.539 28.2891 270.75 28.8984 271.172 29.3203C271.594 29.7422 272.211 29.9531 273.023 29.9531H289.5V36.0469ZM324.305 36.0469H315.516L303.234 24.1875C302.547 23.5625 302.227 22.7812 302.273 21.8438C302.305 21.4062 302.414 21 302.602 20.625C302.805 20.2344 303.078 19.9062 303.422 19.6406L314.555 10.6641H324.305L309.961 22.2188L324.305 36.0469ZM300.727 36.0469H294.633V0H300.727V36.0469ZM354.141 19.1016C354.141 19.9453 353.992 20.8594 353.695 21.8438C353.398 22.8125 352.914 23.7188 352.242 24.5625C351.586 25.3906 350.719 26.0859 349.641 26.6484C348.578 27.2109 347.281 27.4922 345.75 27.4922H334.758V21.7031H345.75C346.578 21.7031 347.219 21.4531 347.672 20.9531C348.125 20.4375 348.352 19.8047 348.352 19.0547C348.352 18.2578 348.094 17.6328 347.578 17.1797C347.078 16.7266 346.469 16.5 345.75 16.5H334.758C333.93 16.5 333.289 16.7578 332.836 17.2734C332.383 17.7734 332.156 18.3984 332.156 19.1484V27.6562C332.156 28.4688 332.406 29.1016 332.906 29.5547C333.422 30.0078 334.055 30.2344 334.805 30.2344H345.75V36.0469H334.758C333.914 36.0469 333 35.8984 332.016 35.6016C331.047 35.3047 330.141 34.8281 329.297 34.1719C328.469 33.5 327.773 32.6328 327.211 31.5703C326.648 30.4922 326.367 29.1875 326.367 27.6562V19.1016C326.367 18.2578 326.516 17.3516 326.812 16.3828C327.109 15.3984 327.586 14.4922 328.242 13.6641C328.914 12.8203 329.781 12.1172 330.844 11.5547C331.922 10.9922 333.227 10.7109 334.758 10.7109H345.75C346.594 10.7109 347.5 10.8594 348.469 11.1562C349.453 11.4531 350.359 11.9375 351.188 12.6094C352.031 13.2656 352.734 14.1328 353.297 15.2109C353.859 16.2734 354.141 17.5703 354.141 19.1016ZM380.414 16.8047H366.703C365.875 16.8047 365.25 17.0156 364.828 17.4375C364.406 17.8438 364.195 18.4453 364.195 19.2422V36.0469H358.102V19.2422C358.102 18.1953 358.234 17.2578 358.5 16.4297C358.766 15.6016 359.117 14.875 359.555 14.25C360.008 13.6094 360.523 13.0703 361.102 12.6328C361.68 12.1797 362.281 11.8125 362.906 11.5312C363.547 11.25 364.188 11.0469 364.828 10.9219C365.484 10.7812 366.094 10.7109 366.656 10.7109H380.414V16.8047Z" fill="#0B6FA4"/>
</svg>
