<svg width="20" height="20" viewBox="0 0 20 20" fill="none" xmlns="http://www.w3.org/2000/svg">
<path d="M3.33338 13.3334V11.3501C3.33338 9.58341 2.47505 8.75008 2.50005 6.66675C2.52505 4.40008 3.74171 1.66675 6.25005 1.66675C7.80838 1.66675 8.33338 3.16675 8.33338 4.58341C8.33338 7.17508 6.66671 9.30008 6.66671 11.8167V13.3334C6.66671 14.2533 5.91991 15.0001 5.00005 15.0001C4.08019 15.0001 3.33338 14.2533 3.33338 13.3334M16.6667 16.6667V14.6834C16.6667 12.9167 17.525 12.0834 17.5 10.0001C17.475 7.73341 16.2584 5.00008 13.75 5.00008C12.1917 5.00008 11.6667 6.50008 11.6667 7.91675C11.6667 10.5084 13.3334 12.6334 13.3334 15.1501V16.6667C13.3334 17.5866 14.0802 18.3334 15 18.3334C15.9199 18.3334 16.6667 17.5866 16.6667 16.6667M13.3334 14.1667H16.6667M3.33338 10.8334H6.66671" stroke="white" stroke-width="1.66667" stroke-linecap="round" stroke-linejoin="round"/>
</svg>
