<svg width="40" height="40" viewBox="0 0 40 40" fill="none" xmlns="http://www.w3.org/2000/svg">
<rect width="40" height="40" rx="20" fill="#0077B6"/>
<path d="M12.6667 11.75H17.25C17.7559 11.75 18.1667 12.1607 18.1667 12.6667V17.25C18.1667 17.7559 17.7559 18.1667 17.25 18.1667H12.6667C12.1607 18.1667 11.75 17.7559 11.75 17.25V12.6667C11.75 12.1607 12.1607 11.75 12.6667 11.75V11.75" stroke="white" stroke-width="1.83333" stroke-linecap="round" stroke-linejoin="round"/>
<path d="M12.6667 21.8335H17.25C17.7559 21.8335 18.1667 22.2442 18.1667 22.7502V27.3335C18.1667 27.8394 17.7559 28.2502 17.25 28.2502H12.6667C12.1607 28.2502 11.75 27.8394 11.75 27.3335V22.7502C11.75 22.2442 12.1607 21.8335 12.6667 21.8335V21.8335" stroke="white" stroke-width="1.83333" stroke-linecap="round" stroke-linejoin="round"/>
<path d="M21.8333 12.6665H28.2499M21.8333 17.2498H28.2499M21.8333 22.7498H28.2499M21.8333 27.3332H28.2499" stroke="white" stroke-width="1.83333" stroke-linecap="round" stroke-linejoin="round"/>
</svg>
