<svg width="20" height="20" viewBox="0 0 20 20" fill="none" xmlns="http://www.w3.org/2000/svg">
<path d="M1.66675 7.91682C1.66678 6.01844 2.83712 4.31656 4.60976 3.63715C6.38239 2.95774 8.39041 3.44143 9.65925 4.85348C9.74749 4.94783 9.8709 5.00138 10.0001 5.00138C10.1293 5.00138 10.2527 4.94783 10.3409 4.85348C11.606 3.43199 13.6189 2.94201 15.3958 3.62305C17.1727 4.30409 18.3425 6.01391 18.3334 7.91682C18.3334 9.82515 17.0834 11.2501 15.8334 12.5001L11.2567 16.9276C10.9426 17.2884 10.4887 17.4968 10.0103 17.4999C9.53198 17.5029 9.0754 17.3002 8.75675 16.9435L4.16675 12.5001C2.91675 11.2501 1.66675 9.83348 1.66675 7.91682" stroke="white" stroke-width="1.66667" stroke-linecap="round" stroke-linejoin="round"/>
<path d="M2.68335 10.8334H7.91668L8.33335 10.0001L10 13.7501L11.6667 7.91675L12.9167 10.8334H17.3083" stroke="white" stroke-width="1.66667" stroke-linecap="round" stroke-linejoin="round"/>
</svg>
