<svg width="40" height="40" viewBox="0 0 40 40" fill="none" xmlns="http://www.w3.org/2000/svg">
<rect width="40" height="40" rx="20" fill="#0077B6"/>
<path d="M28.04 14.8202L22.28 10.7902C20.71 9.69018 18.3 9.75018 16.79 10.9202L11.78 14.8302C10.78 15.6102 9.98999 17.2102 9.98999 18.4702V25.3702C9.98999 27.9202 12.06 30.0002 14.61 30.0002H25.39C27.94 30.0002 30.01 27.9302 30.01 25.3802V18.6002C30.01 17.2502 29.14 15.5902 28.04 14.8202ZM20.75 26.0002C20.75 26.4102 20.41 26.7502 20 26.7502C19.59 26.7502 19.25 26.4102 19.25 26.0002V23.0002C19.25 22.5902 19.59 22.2502 20 22.2502C20.41 22.2502 20.75 22.5902 20.75 23.0002V26.0002Z" fill="white"/>
</svg>
